<svg width="750" height="500" viewBox="0 0 750 500" fill="none" xmlns="http://www.w3.org/2000/svg">
<path d="M433.83 221.86C433.83 221.86 433.83 221.77 433.83 221.62V220.96C433.83 220.36 433.83 219.51 433.83 218.43C433.83 216.21 433.83 213.01 433.75 208.99L433.9 209.14L385.25 209.23C385.36 209.12 385 209.48 385.5 208.99V215.51C385.5 217.65 385.5 219.77 385.5 221.84L385.26 221.59L419.93 221.7L430.16 221.77H432.93H433.65C433.736 221.762 433.824 221.762 433.91 221.77H433.69H432.99H430.28L420 222L385.16 222.11H384.92V221.87C384.92 219.8 384.92 217.68 384.92 215.54V209L385.17 208.75L433.82 208.84H434V209C434 213.06 433.94 216.29 433.92 218.53C433.92 219.6 433.92 220.43 433.92 221.03C433.92 221.29 433.92 221.5 433.92 221.66C433.899 221.73 433.869 221.798 433.83 221.86Z" fill="#E0E0E0"/>
<path d="M527.41 87.24C527.401 87.1636 527.401 87.0864 527.41 87.01C527.41 86.84 527.41 86.62 527.41 86.35C527.41 85.74 527.41 84.9 527.41 83.81C527.41 81.59 527.36 78.4 527.33 74.37L527.48 74.52L478.83 74.62C478.94 74.51 478.58 74.87 479.07 74.37V87.24L478.82 87L513.49 87.11L523.73 87.18H526.5H527.22H527.48C527.404 87.1894 527.326 87.1894 527.25 87.18H526.56H523.84L513.66 87.25L478.82 87.36H478.58V74.39C479.07 73.9 478.71 74.25 478.83 74.14L527.48 74.24H527.63V74.39C527.63 78.46 527.56 81.68 527.54 83.92C527.54 84.99 527.54 85.83 527.54 86.42C527.54 86.68 527.54 86.89 527.54 87.06C527.502 87.1238 527.459 87.184 527.41 87.24Z" fill="#E0E0E0"/>
<path d="M707.83 280C707.821 279.924 707.821 279.846 707.83 279.77V279.11C707.83 278.51 707.83 277.66 707.83 276.58C707.83 274.36 707.83 271.16 707.75 267.13L707.9 267.28L659.25 267.38L659.5 267.13V280L659.26 279.76L693.93 279.87L704.16 279.94H706.93H707.65H707.91C707.91 279.94 707.84 279.94 707.68 279.94H706.99H704.28L694.1 280.01L659.26 280.12H659.01V267.18L659.26 266.94L707.91 267.03H708V267.18C708 271.25 707.94 274.47 707.92 276.72C707.92 277.79 707.92 278.62 707.92 279.22V279.85C707.894 279.902 707.864 279.952 707.83 280Z" fill="#E0E0E0"/>
<path d="M714.43 267.17C714.416 267.091 714.416 267.009 714.43 266.93C714.43 266.74 714.43 266.52 714.43 266.25C714.43 265.61 714.43 264.75 714.43 263.67C714.43 261.41 714.38 258.22 714.34 254.3L714.52 254.48L685.29 254.55C685.06 254.77 685.59 254.25 685.53 254.3V260.92C685.53 263.08 685.53 265.16 685.53 267.16L685.29 266.93L706.21 267.04L712.3 267.11H713.94H714.53C714.354 267.124 714.176 267.124 714 267.11H712.4L706.4 267.18L685.33 267.29H685V267.05C685 265.05 685 262.97 685 260.81V254.19C684.94 254.25 685.47 253.72 685.25 253.95L714.48 254.01H714.66V254.18C714.66 258.18 714.59 261.37 714.57 263.65C714.57 264.72 714.57 265.57 714.57 266.2C714.542 266.526 714.495 266.85 714.43 267.17Z" fill="#E0E0E0"/>
<path d="M254.55 424.62L243.55 429.35L244.29 364.1C244.63 356.29 241.04 352.96 239.09 350.74C221.38 330.6 194.97 345.21 194.74 365.62L194.08 423.93L183.37 423.81L184.43 362.81C184.51 355.94 189.85 344.02 195.24 339.75C225.04 316.14 255.53 340.53 255.24 366.33L254.55 424.62Z" fill="#006FFD"/>
<path d="M254.55 424.62V423.45C254.55 422.68 254.55 421.55 254.55 420.07C254.55 417.07 254.61 412.72 254.65 407.07C254.69 401.42 254.76 394.57 254.83 386.58C254.87 382.58 254.91 378.323 254.95 373.81C254.95 369.29 255.36 364.48 254.43 359.54C253.499 354.367 251.403 349.473 248.3 345.23C247.89 344.68 247.5 344.12 247.07 343.58C246.64 343.04 246.15 342.58 245.69 342.03C244.75 340.987 243.748 340.002 242.69 339.08C242.18 338.59 241.58 338.2 241.02 337.75C240.46 337.3 239.91 336.84 239.28 336.48C238.068 335.672 236.806 334.944 235.5 334.3C232.828 332.956 230 331.948 227.08 331.3L224.82 330.93L223.69 330.74L222.54 330.67L220.22 330.52C219.44 330.52 218.66 330.57 217.88 330.6C211.415 330.894 205.158 332.97 199.8 336.6C194.162 340.417 189.743 345.778 187.07 352.04C185.728 355.271 184.846 358.674 184.45 362.15C184.15 365.65 184.23 369.26 184.16 372.87C184 387.34 183.83 402.32 183.66 417.67C183.66 419.717 183.637 421.757 183.59 423.79L183.34 423.53L194.05 423.65L193.8 423.9C193.927 412.3 194.057 400.967 194.19 389.9C194.25 384.393 194.313 378.963 194.38 373.61C194.38 370.943 194.41 368.293 194.47 365.66C194.527 363.031 194.965 360.424 195.77 357.92C197.411 353.048 200.503 348.795 204.63 345.73C205.119 345.344 205.63 344.987 206.16 344.66L207.76 343.66C208.846 343.085 209.972 342.59 211.13 342.18C212.275 341.763 213.448 341.429 214.64 341.18C215.23 341.05 215.83 341 216.42 340.9L217.31 340.78H218.21C220.559 340.65 222.916 340.848 225.21 341.37C227.447 341.907 229.604 342.73 231.63 343.82C237.394 347.02 241.695 352.328 243.63 358.63C244.195 360.584 244.531 362.598 244.63 364.63C244.63 365.13 244.63 365.63 244.68 366.12C244.73 366.61 244.68 367.12 244.68 367.59C244.68 368.59 244.68 369.53 244.68 370.49C244.68 372.4 244.68 374.28 244.61 376.12C244.51 383.48 244.43 390.24 244.35 396.34C244.18 408.53 244.05 418.07 243.96 424.41L243.89 424.34L251.97 424.47H253.97H254.62H252L243.88 424.42H243.81V424.35C243.81 418.01 243.95 408.47 244.06 396.28C244.12 390.18 244.19 383.41 244.26 376.05C244.26 374.21 244.26 372.33 244.32 370.42C244.32 369.42 244.32 368.5 244.32 367.52C244.32 367.04 244.32 366.52 244.32 366.06L244.26 364.59C244.111 360.492 242.894 356.503 240.73 353.02C238.473 349.29 235.277 346.217 231.46 344.11C229.468 343.043 227.347 342.236 225.15 341.71C222.884 341.202 220.558 341.013 218.24 341.15H217.36L216.49 341.28C215.9 341.37 215.31 341.42 214.73 341.55C212.381 342.051 210.11 342.869 207.98 343.98L206.41 344.92C205.891 345.224 205.39 345.558 204.91 345.92C200.854 348.937 197.821 353.125 196.22 357.92C195.432 360.379 195.008 362.939 194.96 365.52C194.96 368.147 194.93 370.797 194.87 373.47C194.81 378.803 194.75 384.233 194.69 389.76C194.57 400.76 194.44 412.13 194.31 423.76V424.01H194.06L183.34 423.89H183.09V423.64C183.09 421.64 183.113 419.6 183.16 417.52C183.34 402.18 183.51 387.2 183.68 372.72C183.75 369.1 183.68 365.53 183.97 361.95C184.378 358.429 185.277 354.982 186.64 351.71C188.034 348.583 189.837 345.654 192 343C194.192 340.414 196.717 338.131 199.51 336.21C204.937 332.529 211.279 330.425 217.83 330.13C218.62 330.13 219.41 330.04 220.2 330.06L222.89 330.22L224.37 330.39L226.61 330.76L227.61 330.98C230.387 331.63 233.073 332.617 235.61 333.92C236.935 334.57 238.214 335.308 239.44 336.13C240.07 336.5 240.61 337 241.19 337.42C241.77 337.84 242.36 338.27 242.89 338.76C243.949 339.7 244.95 340.701 245.89 341.76L247.29 343.33C247.72 343.88 248.11 344.45 248.52 345.01C251.651 349.301 253.761 354.25 254.69 359.48C255.62 364.48 255.15 369.32 255.18 373.84C255.21 378.36 255.06 382.66 255.01 386.66C254.9 394.66 254.8 401.54 254.72 407.17C254.64 412.8 254.58 417.17 254.53 420.11C254.53 421.57 254.53 422.7 254.47 423.46C254.41 424.22 254.55 424.62 254.55 424.62Z" fill="#006FFD"/>
<path d="M171.137 385.721L268.131 386.822C269.122 386.833 270.069 387.238 270.763 387.947C271.456 388.656 271.839 389.612 271.828 390.604L270.977 465.569C270.967 466.471 270.599 467.331 269.954 467.962C269.31 468.592 268.441 468.941 267.539 468.93L170.245 467.826L171.177 385.722L171.137 385.721Z" fill="#006FFD"/>
<path d="M171.138 385.511L256.438 386.364C257.515 386.375 258.543 386.813 259.297 387.582C260.051 388.351 260.468 389.388 260.457 390.465L259.727 463.465C259.714 464.791 259.175 466.058 258.228 466.986C257.281 467.914 256.004 468.428 254.677 468.415L170.457 467.573C169.344 467.562 168.28 467.108 167.5 466.313C166.72 465.517 166.288 464.445 166.299 463.331L167.037 389.531C167.048 388.454 167.486 387.426 168.255 386.672C169.024 385.918 170.061 385.501 171.138 385.511Z" fill="#006FFD"/>
<path d="M225.85 420.15C225.868 418.616 225.577 417.094 224.995 415.674C224.413 414.255 223.552 412.967 222.462 411.887C221.373 410.806 220.077 409.956 218.653 409.386C217.228 408.817 215.704 408.539 214.17 408.57C211.219 408.658 208.414 409.869 206.327 411.957C204.239 414.044 203.028 416.849 202.94 419.8C202.894 422.302 203.672 424.75 205.153 426.766C206.635 428.783 208.739 430.256 211.14 430.96L203.49 446.68L223.24 447.27L217.4 431C219.796 430.355 221.917 428.947 223.441 426.99C224.966 425.032 225.812 422.631 225.85 420.15Z" fill="#F5F5F5"/>
<path d="M259.18 461.09C259.04 461.09 259.18 446.8 259.43 429.18C259.68 411.56 260.04 397.26 260.18 397.26C260.32 397.26 260.18 411.55 259.93 429.18C259.68 446.81 259.32 461.1 259.18 461.09Z" fill="#FAFAFA"/>
<path d="M238.34 389C238.34 389.14 225.77 389.28 210.26 389.31C194.75 389.34 182.17 389.25 182.17 389.11C182.17 388.97 194.74 388.84 210.26 388.81C225.78 388.78 238.34 388.84 238.34 389Z" fill="white"/>
<path d="M202.5 426.06C202.304 425.848 202.145 425.605 202.03 425.34C201.671 424.644 201.383 423.914 201.17 423.16C200.455 420.649 200.521 417.979 201.361 415.507C202.2 413.034 203.773 410.876 205.87 409.32C206.493 408.849 207.164 408.443 207.87 408.11C208.119 407.972 208.389 407.877 208.67 407.83C208.67 407.91 207.58 408.38 206.08 409.6C204.11 411.173 202.632 413.278 201.822 415.666C201.012 418.053 200.904 420.623 201.51 423.07C202 425 202.58 426 202.5 426.06Z" fill="white"/>
<path d="M207 431.54C206.93 431.66 206.26 431.37 205.5 430.9C204.74 430.43 204.19 429.95 204.26 429.83C204.33 429.71 205.01 430 205.77 430.47C206.53 430.94 207 431.42 207 431.54Z" fill="white"/>
<path d="M216.52 333.17C215.882 333.292 215.238 333.375 214.59 333.42C212.844 333.654 211.118 334.025 209.43 334.53C203.821 336.158 198.791 339.349 194.929 343.73C191.067 348.111 188.532 353.501 187.62 359.27C187.319 361.007 187.169 362.767 187.17 364.53C187.17 365.77 187.17 366.47 187.17 366.47C187.116 366.309 187.089 366.14 187.09 365.97C187.09 365.64 186.99 365.16 186.98 364.53C186.909 362.751 187.01 360.97 187.28 359.21C188.114 353.344 190.648 347.851 194.568 343.408C198.488 338.966 203.624 335.768 209.34 334.21C211.05 333.708 212.805 333.373 214.58 333.21C215.2 333.14 215.69 333.15 216.02 333.14C216.187 333.133 216.355 333.143 216.52 333.17Z" fill="white"/>
<path d="M186.64 375.32C186.412 374.337 186.351 373.323 186.46 372.32C186.392 371.31 186.497 370.295 186.77 369.32C187.072 371.313 187.028 373.342 186.64 375.32Z" fill="white"/>
<path d="M248.27 96.77H199.62V109.64H248.27V96.77Z" fill="#F5F5F5"/>
<path d="M227.7 123.2C227.7 123.2 227.7 123.12 227.7 122.97V122.31C227.7 121.7 227.7 120.85 227.7 119.77C227.7 117.55 227.7 114.36 227.62 110.33L227.77 110.48L179.12 110.58C179.23 110.47 178.87 110.82 179.37 110.33V116.85C179.37 118.997 179.37 121.107 179.37 123.18L179.13 122.94L213.8 123.05L224.03 123.12H226.8H227.52C227.606 123.112 227.694 123.112 227.78 123.12H227.56H226.86H224.15L213.97 123.19L179.13 123.3H178.89V123.06C178.89 120.987 178.89 118.877 178.89 116.73V110.21L179.14 109.96L227.79 110.06H227.94V110.21C227.94 114.27 227.88 117.5 227.86 119.74C227.86 120.81 227.86 121.64 227.86 122.24C227.86 122.5 227.86 122.71 227.86 122.87C227.86 123.03 227.71 123.2 227.7 123.2Z" fill="#E0E0E0"/>
<path d="M700.66 63.17H652.01V76.04H700.66V63.17Z" fill="#F5F5F5"/>
<path d="M680.09 89.6C680.083 89.5235 680.083 89.4465 680.09 89.37V88.71C680.09 88.1 680.09 87.26 680.09 86.17C680.09 83.95 680.09 80.76 680.01 76.73L680.16 76.88L631.51 76.98C631.62 76.87 631.26 77.22 631.76 76.73V78.36C631.76 78.91 631.76 79.46 631.76 80V89.6L631.52 89.36L666.19 89.47L676.42 89.54H679.19H679.91H680.17H679.94H679.25H676.54L666.36 89.61L631.52 89.72H631.27V76.75L631.52 76.5L680.17 76.6H680.32V76.75C680.32 80.81 680.26 84.04 680.24 86.28C680.24 87.35 680.24 88.18 680.24 88.78C680.24 89.04 680.24 89.25 680.24 89.42C680.24 89.59 680.1 89.6 680.09 89.6Z" fill="#E0E0E0"/>
<path d="M423.21 319.03H374.56V331.9H423.21V319.03Z" fill="#F5F5F5"/>
<path d="M402.64 345.46C402.633 345.38 402.633 345.3 402.64 345.22V344.56C402.64 343.96 402.64 343.11 402.64 342.03C402.64 339.81 402.59 336.62 402.56 332.59L402.71 332.74L354.06 332.84C354.17 332.73 353.81 333.08 354.3 332.59V345.44L354.06 345.2L388.73 345.31L398.96 345.38H401.73H402.45H402.71H402.48H401.79H399.08L388.9 345.45L354 345.7H353.75V332.61L354 332.36L402.65 332.46H402.8V332.61C402.8 336.67 402.74 339.9 402.72 342.14C402.72 343.21 402.72 344.04 402.72 344.64C402.72 344.9 402.72 345.11 402.72 345.27C402.697 345.335 402.671 345.398 402.64 345.46Z" fill="#E0E0E0"/>
<path d="M104.26 76.61C104.251 76.5336 104.251 76.4564 104.26 76.38C104.26 76.21 104.26 75.99 104.26 75.72C104.26 75.11 104.26 74.27 104.26 73.18C104.26 70.96 104.26 67.77 104.18 63.74L104.33 63.89L55.6101 64C55.7201 63.89 55.3601 64.25 55.8501 63.75V76.61L55.6101 76.37L90.2801 76.48L100.51 76.55H103.28H104H104.26C104.184 76.5594 104.106 76.5594 104.03 76.55H103.34H100.62L90.4501 76.62L55.6101 76.73H55.3601V63.76L55.6101 63.51L104.26 63.61H104.41V63.76C104.41 67.83 104.35 71.05 104.33 73.29C104.33 74.36 104.33 75.2 104.33 75.79C104.33 76.05 104.33 76.26 104.33 76.43C104.312 76.4917 104.288 76.5519 104.26 76.61Z" fill="#E0E0E0"/>
<path d="M589.41 447.73C589.41 447.73 589.41 447.65 589.41 447.5V446.84C589.41 446.23 589.41 445.39 589.41 444.3C589.41 442.08 589.41 438.89 589.33 434.86L589.48 435.01L540.83 435.11L541.08 434.86V441.38C541.08 443.533 541.08 445.643 541.08 447.71L540.84 447.47L575.51 447.58L585.74 447.65H588.51H589.24H589.49C589.49 447.65 589.42 447.65 589.27 447.65H588.57H585.86L575.68 447.72L540.84 447.83H540.6V447.59C540.6 445.517 540.6 443.407 540.6 441.26V434.74L540.85 434.49L589.5 434.59H589.65V434.74C589.65 438.8 589.59 442.03 589.57 444.27C589.57 445.34 589.57 446.17 589.57 446.77C589.57 447.03 589.57 447.24 589.57 447.41C589.57 447.58 589.42 447.74 589.41 447.73Z" fill="#E0E0E0"/>
<path d="M394.36 58.13C394.36 58.13 394.36 58.04 394.36 57.89V57.23C394.36 56.63 394.36 55.78 394.36 54.7C394.36 52.48 394.36 49.28 394.28 45.26L394.43 45.41L345.78 45.5L346.03 45.26V51.8C346.03 53.9533 346.03 56.0633 346.03 58.13L345.79 57.89L380.46 58L390.69 58.06H393.46H394.19C394.273 58.0518 394.357 58.0518 394.44 58.06H394.22H393.52H390.81L380.63 58.13L345.79 58.24H345.55V58C345.55 55.93 345.55 53.82 345.55 51.67V45.28L345.8 45.03L394.45 45.13H394.6V45.28C394.6 49.34 394.54 52.57 394.52 54.81C394.52 55.88 394.52 56.71 394.52 57.31V57.94C394.476 58.0108 394.422 58.0748 394.36 58.13Z" fill="#E0E0E0"/>
<path d="M401 45.26C400.993 45.1768 400.993 45.0932 401 45.01C401 44.83 401 44.6 401 44.33C401 43.7 401 42.84 401 41.75C401 39.49 400.94 36.31 400.9 32.39L401.08 32.56L371.85 32.63L372.09 32.39V39C372.09 41.15 372.09 43.24 372.09 45.24L371.86 45L392.77 45.11L398.86 45.18H400.5H401.09C400.914 45.1943 400.736 45.1943 400.56 45.18H398.96L392.96 45.24L371.89 45.35H371.65V45.12C371.65 43.12 371.65 41.03 371.65 38.88V32.41C371.59 32.41 372.12 31.94 371.9 32.16L401.13 32.23H401.31V32.41C401.31 36.41 401.23 39.59 401.21 41.88C401.21 42.95 401.21 43.79 401.21 44.42C401.21 45.05 401 45.27 401 45.26Z" fill="#E0E0E0"/>
<path d="M87.3601 365C87.3558 364.923 87.3558 364.847 87.3601 364.77C87.3601 364.6 87.3601 364.38 87.3601 364.11C87.3601 363.5 87.3601 362.66 87.3601 361.58C87.3601 359.36 87.36 356.16 87.28 352.13L87.43 352.28L38.78 352.38L39.03 352.13V358.66C39.03 360.807 39.03 362.917 39.03 364.99L38.7901 364.75L73.46 364.86L83.6901 364.93H86.46H87.1901H87.4401C87.4401 364.93 87.3701 364.93 87.2201 364.93H86.52H83.81L73.63 365L38.7901 365.11H38.55V365C38.55 362.93 38.55 360.82 38.55 358.67V352.14C39.05 351.65 38.69 352.01 38.8 351.9L87.45 351.99H87.6V352.14C87.6 356.21 87.54 359.43 87.52 361.68C87.52 362.75 87.52 363.58 87.52 364.18V364.81C87.37 365 87.3701 365 87.3601 365Z" fill="#E0E0E0"/>
<path d="M94 352.15C93.9921 352.07 93.9921 351.99 94 351.91C94 351.72 94 351.5 94 351.23C94 350.59 94 349.73 94 348.65C94 346.39 93.94 343.2 93.9 339.28L94.08 339.46L64.85 339.53C64.63 339.75 65.15 339.23 65.09 339.28V345.9C65.09 348.06 65.09 350.14 65.09 352.14L64.86 351.91L85.77 352.02L91.86 352.09H93.5H94.09C93.9136 352.104 93.7364 352.104 93.56 352.09H91.96L85.96 352.16L64.89 352.27H64.65V352.03C64.65 350.03 64.65 347.95 64.65 345.79V339.17L64.9 338.92L94 339.1H94.18V339.28C94.18 343.28 94.1 346.47 94.08 348.75C94.08 349.82 94.08 350.67 94.08 351.3C94.08 351.93 94 352.17 94 352.15Z" fill="#E0E0E0"/>
<path d="M240.56 259.19C240.551 259.114 240.551 259.036 240.56 258.96V258.3C240.56 257.69 240.56 256.85 240.56 255.77C240.56 253.54 240.51 250.35 240.48 246.32L240.63 246.47L191.98 246.57C192.09 246.46 191.73 246.82 192.22 246.32V259.17L191.98 258.93L226.65 259.04L236.88 259.11H239.65H240.37H240.63H240.4H239.71H236.99L226.82 259.17L191.98 259.28H191.73V246.18L191.98 245.93L240.63 246.03H240.78V246.18C240.78 250.25 240.72 253.47 240.7 255.72C240.7 256.78 240.7 257.62 240.7 258.21V258.85C240.671 258.97 240.623 259.084 240.56 259.19Z" fill="#E0E0E0"/>
<path d="M247.16 246.32C247.146 246.241 247.146 246.159 247.16 246.08C247.16 245.89 247.16 245.67 247.16 245.39L247.11 242.81C247.11 240.56 247.11 237.37 247.02 233.45L247.2 233.63L217.96 233.7L218.21 233.45V240.07C218.21 242.22 218.21 244.31 218.21 246.31L217.97 246.08L238.88 246.19L244.98 246.25H246.62H247.21C247.03 246.263 246.85 246.263 246.67 246.25H245.08L239.08 246.32L218.01 246.43H217.78V246.19C217.78 244.19 217.78 242.1 217.78 239.95V233.33C217.78 233.38 218.26 232.86 218.03 233.08L247.27 233.15H247.45V233.33C247.45 237.33 247.38 240.52 247.36 242.8C247.36 243.87 247.36 244.72 247.31 245.34C247.26 245.96 247.17 246.33 247.16 246.32Z" fill="#E0E0E0"/>
<path d="M694.36 468.89C694.36 469.03 551.81 469.15 376.02 469.15C200.23 469.15 57.64 469 57.64 468.89C57.64 468.78 200.16 468.63 376.02 468.63C551.88 468.63 694.36 468.75 694.36 468.89Z" fill="#263238"/>
<path d="M60.4201 413.6L42.4501 438L72.7101 460.52C74.7101 457.52 63.3401 440.04 63.3401 440.04L75.5001 424.88L60.4201 413.6Z" fill="#455A64"/>
<path d="M55 431.78C54.6442 431.65 54.253 431.657 53.902 431.8C53.551 431.942 53.2653 432.209 53.1 432.55C52.9595 432.903 52.9588 433.296 53.0982 433.649C53.2376 434.002 53.5065 434.288 53.85 434.45C54.2271 434.583 54.6399 434.571 55.0091 434.418C55.3783 434.265 55.6778 433.981 55.85 433.62C55.9605 433.237 55.918 432.826 55.7315 432.473C55.545 432.121 55.229 431.854 54.85 431.73" fill="white"/>
<path d="M42.41 438.06L44.32 435.44L72.59 458.2C72.59 458.2 73.49 459.8 72.59 460.63L42.41 438.06Z" fill="#263238"/>
<path d="M64 440.26C63.89 440.41 63.1 439.93 62 439.86C60.9 439.79 60.07 440.13 60 439.97C59.93 439.81 60.77 439.12 62.07 439.22C63.37 439.32 64.08 440.15 64 440.26Z" fill="#263238"/>
<path d="M66.15 443.94C66.07 444.11 65.25 443.88 64.28 444.13C63.31 444.38 62.68 444.94 62.53 444.82C62.38 444.7 62.92 443.82 64.13 443.51C65.34 443.2 66.25 443.8 66.15 443.94Z" fill="#263238"/>
<path d="M65.1201 449.08C64.9601 449.01 65.3101 448.08 66.2901 447.59C67.2701 447.1 68.2001 447.26 68.1701 447.43C68.1401 447.6 67.3901 447.71 66.6001 448.16C65.8101 448.61 65.2801 449.17 65.1201 449.08Z" fill="#263238"/>
<path d="M66.34 436.5C66.17 436.59 65.65 435.88 64.77 435.32C63.89 434.76 63.05 434.53 63.06 434.32C63.07 434.11 64.06 434.07 65.12 434.75C66.18 435.43 66.5 436.44 66.34 436.5Z" fill="#263238"/>
<path d="M133.58 311.46C134.12 314.52 134.98 340.55 135.53 354.28C136.08 368.01 134.71 374.76 133.14 377.84C131.57 380.92 72.36 424.55 67.85 435L52.85 422.91C52.85 422.91 74.85 383.42 84.23 376.24C93.61 369.06 111.66 362.47 111.66 362.47L106.53 287.28L131.12 285.94L133.58 311.46Z" fill="#263238"/>
<path d="M78.55 437.73L78.29 468L116 468.52C115.83 464.92 96.42 457.41 96.42 457.41L97.42 438L78.55 437.73Z" fill="#455A64"/>
<path d="M84.7801 455.66C84.4162 455.765 84.1039 456.001 83.9028 456.322C83.7017 456.643 83.626 457.027 83.6901 457.4C83.7828 457.768 84.0124 458.086 84.332 458.291C84.6517 458.495 85.0372 458.57 85.4101 458.5C85.7943 458.386 86.123 458.134 86.3333 457.793C86.5436 457.451 86.6208 457.045 86.5501 456.65C86.416 456.276 86.1418 455.969 85.7853 455.793C85.4289 455.618 85.0182 455.588 84.6401 455.71" fill="white"/>
<path d="M78.28 468.11V464.86L114.53 466.74C114.53 466.74 116.19 467.51 115.98 468.69L78.28 468.11Z" fill="#263238"/>
<path d="M97 457.27C97 457.46 96.07 457.53 95.16 458.11C94.25 458.69 93.75 459.45 93.58 459.38C93.41 459.31 93.7 458.24 94.82 457.56C95.94 456.88 97.08 457.1 97 457.27Z" fill="#263238"/>
<path d="M101 459C101 459.18 100.23 459.48 99.6 460.25C98.97 461.02 98.77 461.85 98.6 461.83C98.43 461.81 98.31 460.78 99.12 459.83C99.93 458.88 101 458.79 101 459Z" fill="#263238"/>
<path d="M103.15 463.73C102.98 463.73 102.74 462.84 103.22 461.84C103.7 460.84 104.58 460.45 104.65 460.6C104.72 460.75 104.19 461.29 103.8 462.12C103.41 462.95 103.33 463.71 103.15 463.73Z" fill="#263238"/>
<path d="M96.76 452.82C96.68 452.99 95.84 452.72 94.76 452.82C93.68 452.92 92.9 453.19 92.76 453.03C92.62 452.87 93.45 452.23 94.68 452.18C95.91 452.13 96.85 452.68 96.76 452.82Z" fill="#263238"/>
<path d="M136.3 282.83C136.3 284.6 139.17 329.41 124.52 361.83C124.52 361.83 119.45 371.97 118.52 376.4C117.59 380.83 98.64 454.31 98.64 454.31L76.74 453.51C76.74 453.51 73.24 416.7 76.74 395.39C80.24 374.08 86.74 376.58 86.74 362.82C86.74 349.06 83.47 320.53 83.47 320.53C83.47 320.53 78.69 312.74 77.06 297.63C75.73 285.36 81.51 272.21 81.51 272.21L87.22 262.1L135.53 259.57L136.3 282.83Z" fill="#263238"/>
<path d="M136.3 282.83C136.3 282.83 136.3 282.31 136.3 281.3C136.3 280.29 136.24 278.79 136.2 276.82C136.11 272.87 135.96 267.05 135.78 259.53V259.42H135.66L87.3501 261.88H87.2501L87.1901 261.97C85.4201 265.11 83.4701 268.54 81.4701 272.08C79.9826 275.668 78.8212 279.383 78.0001 283.18C77.0929 287.177 76.6864 291.272 76.7901 295.37C77.0945 299.649 77.7636 303.895 78.7901 308.06C79.7803 312.433 81.3368 316.659 83.4201 320.63V320.53C84.2501 327.99 85.0201 335.72 85.6701 343.68C85.9901 347.68 86.2701 351.68 86.4701 355.79C86.5701 357.79 86.6501 359.89 86.6601 361.96C86.6601 362.96 86.6601 364.03 86.6001 365.06C86.5289 366.093 86.402 367.121 86.2201 368.14C85.8107 370.193 85.0854 372.17 84.0701 374C83.0701 375.87 82.0701 377.72 81.0701 379.67C79.259 383.628 77.9392 387.792 77.1401 392.07C75.4001 400.67 75.0501 409.61 74.9501 418.62C74.9501 430.51 75.5101 442.19 76.4901 453.48V453.72H76.7201L98.6201 454.52H98.8301L98.8801 454.31C105.23 429.7 111.15 406.7 116.37 386.02L118.26 378.37C118.59 377.1 118.8 375.84 119.19 374.64C119.58 373.44 120.02 372.25 120.48 371.09C121.42 368.77 122.48 366.52 123.48 364.33L124.26 362.7C124.537 362.168 124.784 361.62 125 361.06C125.45 359.95 125.9 358.86 126.35 357.77C129.46 349.705 131.774 341.355 133.26 332.84C135.402 320.709 136.506 308.418 136.56 296.1C136.62 287.48 136.27 282.8 136.27 282.8C136.27 282.8 136.27 283.09 136.27 283.66C136.27 284.23 136.27 285.1 136.33 286.22C136.39 288.47 136.43 291.79 136.33 296.1C136.238 308.408 135.124 320.687 133 332.81C131.48 341.298 129.136 349.617 126 357.65L124.66 360.92C124.44 361.48 124.19 362.01 123.92 362.55C123.65 363.09 123.39 363.64 123.13 364.19C122.13 366.38 121.07 368.63 120.13 370.96C119.66 372.13 119.21 373.32 118.82 374.54C118.43 375.76 118.2 377.05 117.88 378.29C117.25 380.81 116.62 383.35 115.97 385.94C110.66 406.6 104.75 429.6 98.4201 454.21L98.6801 454.02L76.7801 453.21L77.0401 453.45C76.0401 442.18 75.4601 430.51 75.5001 418.64C75.6001 409.64 75.9501 400.74 77.6801 392.2C78.4767 387.962 79.7829 383.835 81.5701 379.91C82.4701 377.98 83.5701 376.15 84.5701 374.25C85.5787 372.37 86.2937 370.346 86.6901 368.25C86.8797 367.208 87.0099 366.157 87.0801 365.1C87.0801 364.1 87.1801 363 87.1401 361.97C87.1401 359.89 87.0501 357.82 86.9501 355.77C86.7501 351.67 86.4601 347.63 86.1301 343.65C85.4634 335.65 84.7067 327.927 83.8601 320.48V320.42C81.7761 316.5 80.2129 312.325 79.2101 308C78.1894 303.864 77.5203 299.649 77.2101 295.4C77.1024 291.34 77.4987 287.282 78.3901 283.32C79.1958 279.561 80.3302 275.88 81.7801 272.32L87.4801 262.2L87.3201 262.3L135.63 259.69L135.5 259.58C135.74 267.09 135.92 272.91 136.04 276.86C136.11 278.86 136.16 280.32 136.2 281.34C136.24 282.36 136.3 282.83 136.3 282.83Z" fill="#455A64"/>
<path d="M120.59 191.07C120.59 191.07 107.59 188.77 108.8 205.5C109.56 215.5 112.5 232.66 114.13 243.61C114.69 247.4 115.93 254.18 120.94 258.16L156.84 283L168.17 269.45L136.11 238.92L131.11 208.72L120.59 191.07Z" fill="#455A64"/>
<path d="M122.12 130.77C124.181 132.429 125.811 134.561 126.873 136.984C127.935 139.407 128.397 142.05 128.22 144.69C128.02 147.25 127.31 150.16 128.98 152.11C130.65 154.06 133.85 153.99 135.43 155.97C137.28 158.31 135.73 161.79 136.43 164.7C136.787 166.059 137.615 167.247 138.768 168.051C139.92 168.856 141.321 169.224 142.72 169.09C139.438 171.776 135.48 173.505 131.28 174.09L128 170C129.22 171.44 128.89 173.73 127.72 175.2C126.449 176.568 124.81 177.54 123 178C118.692 179.325 114.136 179.639 109.687 178.915C105.238 178.192 101.016 176.452 97.35 173.83" fill="#263238"/>
<path d="M74.0901 153.34C74.7301 151.34 75.8101 149.57 76.2401 147.56C77.1601 143.23 75.0501 138.35 77.1501 134.45C78.6501 131.68 81.8301 130.32 84.8501 129.39C87.8701 128.46 91.0901 127.68 93.3401 125.47C94.9801 123.85 95.9201 121.61 97.5601 119.99C99.9001 117.67 103.36 116.88 106.64 116.68C110.027 116.353 113.441 116.907 116.55 118.29C118.094 118.994 119.45 120.052 120.51 121.377C121.57 122.703 122.303 124.259 122.65 125.92C122.91 127.54 122.71 129.25 123.23 130.82C123.79 132.54 125.14 133.88 125.98 135.49C126.821 137.219 127.065 139.178 126.672 141.061C126.279 142.943 125.273 144.642 123.81 145.89L100.63 175.83C95.7601 177.67 83.9601 175.45 80.2001 171.83C76.4401 168.21 72.4801 158.29 74.0901 153.34Z" fill="#263238"/>
<path d="M123.2 142.09C122.2 135.29 117.07 127.26 110.32 128.5L89.4801 135.5C87.4801 135.88 88.9001 139.23 89.1001 141.3L93.6301 188.3C93.6301 188.3 90.8101 190.3 89.8101 189.92C89.7531 189.9 89.6914 189.898 89.6335 189.915C89.5755 189.932 89.5243 189.967 89.4869 190.014C89.4495 190.061 89.4278 190.119 89.4247 190.179C89.4217 190.24 89.4376 190.299 89.4701 190.35C92.0001 194 103.79 209.87 116 205C118.72 203.91 115.71 195.34 116 192.17L115.64 184.06C115.37 179.92 115.24 178.22 115.24 178.26C115.24 178.3 123.86 176.14 124.79 164.61C125.26 158.9 124.26 149.64 123.2 142.09Z" fill="#FFBF9D"/>
<path d="M121.75 152.55C121.781 152.931 121.663 153.308 121.42 153.603C121.177 153.898 120.83 154.087 120.45 154.13C120.265 154.16 120.076 154.152 119.894 154.107C119.713 154.063 119.542 153.982 119.391 153.87C119.241 153.758 119.115 153.617 119.021 153.456C118.926 153.294 118.864 153.116 118.84 152.93C118.809 152.549 118.927 152.172 119.17 151.877C119.413 151.582 119.761 151.393 120.14 151.35C120.325 151.32 120.514 151.328 120.696 151.373C120.877 151.417 121.049 151.498 121.199 151.61C121.349 151.722 121.475 151.863 121.57 152.024C121.664 152.186 121.726 152.364 121.75 152.55Z" fill="#263238"/>
<path d="M107.55 153.44C107.584 153.82 107.468 154.197 107.227 154.493C106.986 154.788 106.639 154.977 106.26 155.02C106.075 155.048 105.887 155.04 105.706 154.994C105.524 154.949 105.354 154.868 105.204 154.757C105.054 154.645 104.928 154.505 104.833 154.344C104.738 154.183 104.676 154.005 104.65 153.82C104.619 153.439 104.737 153.062 104.98 152.767C105.223 152.472 105.571 152.283 105.95 152.24C106.134 152.21 106.323 152.218 106.504 152.263C106.685 152.308 106.855 152.388 107.005 152.5C107.154 152.612 107.279 152.753 107.373 152.915C107.467 153.076 107.527 153.255 107.55 153.44Z" fill="#263238"/>
<path d="M122.27 147.73C122.11 148 120.75 147.14 119.05 147.39C117.35 147.64 116.26 148.8 116.05 148.59C115.84 148.38 116.05 148.03 116.54 147.5C117.155 146.809 117.997 146.36 118.913 146.234C119.829 146.108 120.761 146.312 121.54 146.81C122.1 147.2 122.35 147.61 122.27 147.73Z" fill="#263238"/>
<path d="M107 149C106.8 149.25 105.47 148.28 103.64 148.36C101.81 148.44 100.51 149.47 100.3 149.24C100.09 149.01 100.39 148.7 100.96 148.24C101.708 147.622 102.64 147.271 103.61 147.24C104.575 147.202 105.525 147.487 106.31 148.05C106.88 148.46 107.09 148.88 107 149Z" fill="#263238"/>
<path d="M112.73 159.77C113.537 159.44 114.385 159.218 115.25 159.11C115.64 159.04 116.02 158.93 116.06 158.65C116.065 158.232 115.939 157.823 115.7 157.48C115.25 156.54 114.78 155.55 114.28 154.48C112.28 150.25 110.83 146.77 111 146.69C111.17 146.61 112.92 149.97 114.9 154.19C115.38 155.24 115.84 156.19 116.27 157.19C116.563 157.654 116.68 158.207 116.6 158.75C116.554 158.896 116.475 159.03 116.37 159.141C116.264 159.252 116.134 159.337 115.99 159.39C115.773 159.464 115.548 159.511 115.32 159.53C114.469 159.712 113.6 159.793 112.73 159.77Z" fill="#263238"/>
<path d="M115.24 178.28C109.885 178.772 104.498 177.768 99.6801 175.38C99.6801 175.38 104.13 183.08 115.44 181.14L115.24 178.28Z" fill="#FF9A6C"/>
<path d="M107.94 164.35C108.118 163.955 108.394 163.611 108.74 163.35C109.164 163.148 109.645 163.102 110.1 163.22C110.775 163.319 111.4 163.635 111.88 164.12C112.115 164.365 112.281 164.668 112.36 164.999C112.44 165.329 112.429 165.675 112.33 166C112.15 166.66 111.17 167 110.5 167.14C109.806 167.241 109.098 167.096 108.5 166.73C108.24 166.611 108.013 166.431 107.838 166.204C107.664 165.978 107.548 165.712 107.5 165.43C107.544 165.036 107.697 164.663 107.94 164.35Z" fill="#FF9A6C"/>
<path d="M108.26 162.14C108.51 162.14 108.65 163.81 110.2 164.91C111.75 166.01 113.55 165.68 113.58 165.91C113.61 166.14 113.21 166.27 112.44 166.35C111.441 166.442 110.442 166.176 109.62 165.6C108.827 165.053 108.281 164.216 108.1 163.27C108 162.58 108.14 162.14 108.26 162.14Z" fill="#263238"/>
<path d="M106.86 142.85C106.73 143.28 105.15 143.2 103.32 143.57C101.49 143.94 100.04 144.57 99.77 144.18C99.65 144.01 99.87 143.59 100.44 143.13C101.204 142.561 102.087 142.175 103.024 142.002C103.96 141.828 104.923 141.872 105.84 142.13C106.54 142.33 106.91 142.64 106.86 142.85Z" fill="#263238"/>
<path d="M121.3 142C121.01 142.38 119.75 142.11 118.3 142.21C116.85 142.31 115.57 142.66 115.25 142.31C115.11 142.14 115.25 141.76 115.8 141.38C116.523 140.903 117.364 140.637 118.23 140.61C119.09 140.548 119.95 140.732 120.71 141.14C121.23 141.44 121.43 141.8 121.3 142Z" fill="#263238"/>
<path d="M84.87 137.14C85.87 135.52 87.81 134.69 89.61 134C97.3838 130.998 105.488 128.934 113.75 127.85C114.75 129.54 113.83 131.85 112.28 133.08C110.73 134.31 108.73 134.8 106.88 135.49C105.03 136.18 103.12 137.26 102.35 139.09C101.58 140.92 102.23 143.33 101.51 145.31C100.28 148.73 95.51 149.83 94.32 153.24C93.4 155.83 94.9 158.58 95.32 161.3C95.5121 162.68 95.4075 164.086 95.0132 165.423C94.6189 166.76 93.944 167.997 93.0335 169.052C92.1231 170.107 90.998 170.956 89.7334 171.542C88.4688 172.128 87.0937 172.438 85.7 172.45C85.14 162.657 84.5767 152.87 84.01 143.09C83.84 141.05 83.76 138.85 84.87 137.14Z" fill="#263238"/>
<path d="M65.15 161.87C66.7 160.48 68.64 159.28 69.25 157.3C70.15 154.41 67.83 151.02 69.33 148.39C70.69 145.99 74.7 146.12 75.97 143.67C76.97 141.75 75.82 140.06 76.19 138.38C76.56 136.7 78.96 135.23 80.66 135.43L94 154.8C95.24 161.3 96.49 164.8 95.1 168.56C94.1807 170.585 93.4865 172.704 93.03 174.88C92.73 177.08 93.3 179.57 95.09 180.88C87.09 181.51 79.61 177.33 72.69 173.28L65.4 169C64.602 168.618 63.9139 168.04 63.4 167.32C62.31 165.54 63.61 163.25 65.15 161.87Z" fill="#263238"/>
<path d="M72.52 171.31C72.7991 171.4 73.0877 171.457 73.38 171.48C74.2142 171.56 75.0559 171.499 75.87 171.3C77.1695 170.989 78.3655 170.344 79.34 169.43C80.6273 168.191 81.4349 166.537 81.62 164.76C81.7402 163.73 81.6518 162.686 81.36 161.69C81.0015 160.629 80.5038 159.62 79.88 158.69C79.2187 157.746 78.7029 156.707 78.35 155.61C78.1626 155.049 78.1039 154.453 78.1784 153.866C78.2528 153.279 78.4585 152.717 78.78 152.22C79.5 151.22 80.85 151.01 82.11 150.51C82.7905 150.265 83.3825 149.823 83.81 149.24C84.2037 148.616 84.3957 147.887 84.36 147.15C84.1871 145.738 83.8824 144.345 83.45 142.99C83.2965 142.332 83.2965 141.648 83.45 140.99C83.6261 140.327 84.0341 139.748 84.6 139.36C85.8168 138.658 87.1955 138.286 88.6 138.28C90.0536 138.232 91.4713 137.816 92.72 137.07C93.9351 136.329 94.9216 135.267 95.57 134C96.1023 132.784 96.4397 131.491 96.57 130.17C96.7088 128.947 96.9701 127.741 97.35 126.57C97.7712 125.505 98.4117 124.541 99.23 123.74C100.739 122.308 102.688 121.427 104.76 121.24C106.488 121.092 108.222 121.439 109.76 122.24C110.917 122.832 111.96 123.624 112.84 124.58C113.576 125.414 114.213 126.33 114.74 127.31C114.74 127.31 114.74 127.24 114.67 127.1C114.588 126.901 114.494 126.708 114.39 126.52C114.008 125.794 113.542 125.116 113 124.5C112.12 123.506 111.071 122.676 109.9 122.05C108.346 121.196 106.58 120.804 104.81 120.92C102.638 121.079 100.587 121.979 99 123.47C98.1255 124.315 97.4434 125.338 97 126.47C96.6035 127.663 96.3288 128.892 96.18 130.14C96.0413 131.418 95.7039 132.666 95.18 133.84C94.5702 135.02 93.6507 136.012 92.52 136.71C91.3286 137.409 89.9807 137.797 88.6 137.84C87.0953 137.837 85.6172 138.237 84.32 139C83.6711 139.441 83.2025 140.102 83 140.86C82.8248 141.6 82.8248 142.37 83 143.11C83.4235 144.44 83.7248 145.805 83.9 147.19C83.9412 147.833 83.7804 148.473 83.44 149.02C83.0537 149.527 82.5295 149.913 81.93 150.13C81.34 150.38 80.7 150.55 80.08 150.81C79.4344 151.054 78.8651 151.464 78.43 152C78.0768 152.552 77.8506 153.176 77.7676 153.826C77.6846 154.476 77.7469 155.137 77.95 155.76C78.3245 156.893 78.8636 157.964 79.55 158.94C80.1591 159.824 80.6468 160.786 81 161.8C81.2834 162.746 81.3785 163.738 81.28 164.72C81.1161 166.43 80.3591 168.029 79.14 169.24C78.2069 170.144 77.0565 170.791 75.8 171.12C74.73 171.399 73.6152 171.464 72.52 171.31Z" fill="#455A64"/>
<path d="M61.86 157.54C61.7292 157.736 61.6407 157.958 61.6 158.19C61.467 158.876 61.5879 159.587 61.94 160.19C62.1841 160.621 62.5268 160.987 62.94 161.26C63.4552 161.572 64.048 161.731 64.65 161.72C65.3816 161.704 66.0947 161.488 66.7119 161.094C67.329 160.701 67.8264 160.146 68.15 159.49C68.5304 158.737 68.7258 157.904 68.72 157.06C68.6959 156.153 68.5061 155.259 68.16 154.42C67.53 152.69 66.37 151 66.35 148.98C66.3122 148.483 66.3751 147.983 66.5349 147.51C66.6947 147.038 66.9481 146.602 67.28 146.23C68.0908 145.56 69.1327 145.237 70.18 145.33C71.3456 145.415 72.517 145.293 73.64 144.97C74.2285 144.73 74.7257 144.31 75.06 143.77C75.3819 143.233 75.5832 142.632 75.65 142.01C75.7077 140.816 75.6102 139.619 75.36 138.45C75.181 137.353 75.2459 136.229 75.55 135.16C76.1168 133.119 77.4446 131.372 79.26 130.28C80.9833 129.402 82.8964 128.963 84.83 129C86.5485 129.004 88.2566 128.734 89.89 128.2C91.2181 127.713 92.4353 126.965 93.47 126C94.2624 125.268 94.937 124.418 95.47 123.48C95.9391 122.702 96.2611 121.844 96.42 120.95C96.1223 121.794 95.7509 122.611 95.31 123.39C94.0502 125.493 92.1096 127.101 89.81 127.95C88.1903 128.446 86.5038 128.688 84.81 128.67C82.8201 128.614 80.8476 129.054 79.07 129.95C77.1609 131.069 75.7515 132.876 75.13 135C74.81 136.128 74.7384 137.312 74.92 138.47C75.1541 139.601 75.2515 140.756 75.21 141.91C75.1864 142.459 75.0125 142.99 74.7075 143.447C74.4024 143.904 73.9779 144.268 73.48 144.5C72.4114 144.803 71.2976 144.915 70.19 144.83C69.0302 144.729 67.8771 145.088 66.98 145.83C66.6138 146.247 66.3362 146.734 66.1643 147.262C65.9924 147.79 65.9297 148.347 65.98 148.9C66.0242 149.938 66.2723 150.958 66.71 151.9C67.1 152.8 67.53 153.64 67.86 154.48C68.1956 155.276 68.3853 156.127 68.42 156.99C68.4337 157.779 68.2625 158.559 67.92 159.27C67.6299 159.883 67.1772 160.405 66.6113 160.779C66.0453 161.152 65.3878 161.364 64.71 161.39C64.1541 161.41 63.6036 161.275 63.12 161C62.7061 160.758 62.3616 160.414 62.12 160C61.7695 159.444 61.6245 158.782 61.71 158.13C61.76 157.77 61.89 157.55 61.86 157.54Z" fill="#263238"/>
<path d="M146.09 162.31C146.328 162.986 146.328 163.724 146.09 164.4C145.958 164.788 145.74 165.142 145.453 165.434C145.166 165.727 144.816 165.951 144.43 166.09C143.916 166.242 143.369 166.247 142.852 166.106C142.334 165.965 141.866 165.682 141.5 165.29C141.08 164.828 140.836 164.234 140.81 163.61C140.791 162.93 140.896 162.252 141.12 161.61C141.54 160.26 142.41 158.79 142.28 157.02C142.217 156.123 141.967 155.248 141.547 154.453C141.127 153.657 140.546 152.958 139.84 152.4C139.101 151.809 138.256 151.364 137.35 151.09C136.425 150.834 135.47 150.696 134.51 150.68C133.58 150.672 132.652 150.575 131.74 150.39C130.889 150.214 130.127 149.743 129.59 149.06C129.114 148.359 128.847 147.537 128.82 146.69C128.776 145.865 128.843 145.037 129.02 144.23C129.459 142.707 129.701 141.134 129.74 139.55C129.66 138.143 129.162 136.793 128.31 135.67C127.59 134.779 126.708 134.033 125.71 133.47C124.981 133.039 124.283 132.557 123.62 132.03C123.077 131.565 122.634 130.993 122.32 130.35C122.32 130.35 122.32 130.35 122.32 130.49C122.36 130.625 122.413 130.756 122.48 130.88C122.729 131.366 123.069 131.8 123.48 132.16C124.128 132.724 124.82 133.236 125.55 133.69C126.504 134.258 127.345 134.997 128.03 135.87C128.823 136.946 129.275 138.235 129.33 139.57C129.271 141.119 129.019 142.654 128.58 144.14C128.387 144.986 128.309 145.854 128.35 146.72C128.387 147.653 128.685 148.557 129.21 149.33C129.806 150.101 130.657 150.636 131.61 150.84C132.548 151.033 133.502 151.136 134.46 151.15C135.386 151.162 136.306 151.29 137.2 151.53C138.049 151.794 138.842 152.211 139.54 152.76C140.197 153.278 140.74 153.927 141.134 154.665C141.528 155.404 141.765 156.216 141.83 157.05C141.97 158.66 141.17 160.05 140.73 161.5C140.499 162.196 140.397 162.928 140.43 163.66C140.474 164.359 140.76 165.02 141.24 165.53C141.651 165.96 142.174 166.266 142.751 166.413C143.327 166.56 143.934 166.541 144.5 166.36C144.914 166.199 145.286 165.947 145.587 165.621C145.889 165.295 146.112 164.905 146.24 164.48C146.421 163.959 146.449 163.397 146.32 162.86C146.277 162.664 146.199 162.478 146.09 162.31Z" fill="#263238"/>
<path d="M136.53 240.64V229.58C137.77 223.37 137.18 216.01 134.29 210.34C132.193 206.685 129.876 203.162 127.35 199.79L116.35 185.5C110.29 189.91 100.8 186.72 92.66 183.76C92.66 183.76 84.66 188.21 80.88 192.39C76.95 196.79 90.39 251.84 90.39 251.84C84.3 264.02 76.44 274.84 75.25 285.94L138.85 288.39L136.15 259.23L136.53 240.64Z" fill="#455A64"/>
<path d="M135.65 259.54C135.587 259.127 135.57 258.707 135.6 258.29C135.6 257.38 135.6 256.29 135.6 254.9C135.65 251.9 135.71 248.03 135.78 243.72C135.85 239.41 135.98 235.4 136.12 232.54C136.19 231.11 136.26 229.95 136.32 229.15C136.327 228.735 136.381 228.323 136.48 227.92C136.52 228.332 136.52 228.748 136.48 229.16C136.48 230.07 136.48 231.16 136.48 232.55C136.43 235.55 136.36 239.42 136.29 243.73C136.22 248.04 136.1 252.05 135.96 254.91C135.89 256.34 135.82 257.5 135.75 258.3C135.766 258.716 135.732 259.132 135.65 259.54Z" fill="#263238"/>
<path d="M164.7 269.6C164.7 269.6 170.9 269.94 174.7 272.34C178.5 274.74 184.7 278.48 187.25 283.11C188.42 285.24 185.09 285.69 183.44 284.46C181.79 283.23 179.28 280.89 178.03 280.61L176.78 280.32C177.921 282.903 179.193 285.426 180.59 287.88C181.88 289.88 183 293.2 179.12 293.35C179.12 293.35 176.51 296.75 173.87 294.23C173.87 294.23 171.81 297.32 168.49 293.04C168.49 293.04 166.55 295.49 165.75 294.55C164.95 293.61 162.3 292.13 161.53 289.07C160.375 285.508 159.04 282.007 157.53 278.58L164.7 269.6Z" fill="#FFBF9D"/>
<path d="M303.51 183.66C304.2 183.66 332.59 180.66 332.59 180.66C332.59 180.66 335 169.12 334.87 166.12C334.74 163.12 332.72 143.27 332.72 143.27L343.35 138.27C343.35 138.27 357.56 186.19 354.46 190.17C351.36 194.15 345.53 197.72 345.03 197.74C344.53 197.76 317.52 209.74 298.73 203.51C279.94 197.28 303.51 183.66 303.51 183.66Z" fill="#FFBF9D"/>
<path d="M278.63 209.53C282.81 213.68 290.01 217.13 302.03 214.13C325.79 208.19 343.6 203.13 350.68 199.33C357.76 195.53 355 178.55 355.6 177.78C357.39 175.46 355.42 170.48 352.87 169.7C345.6 167.5 332.95 168.37 332.31 169.03C328.58 172.95 331.98 177.71 331.98 177.71L300.65 181.82C296.798 181.639 292.938 181.884 289.14 182.55" fill="#455A64"/>
<path d="M289.14 182.55L289.89 182.39C290.39 182.3 291.13 182.17 292.11 182.05C294.945 181.693 297.805 181.573 300.66 181.69L331.98 177.49L331.83 177.84C330.801 176.326 330.295 174.518 330.39 172.69C330.475 171.745 330.784 170.833 331.29 170.03C331.544 169.627 331.832 169.245 332.15 168.89C332.275 168.797 332.413 168.723 332.56 168.67L332.92 168.58C333.16 168.52 333.39 168.5 333.62 168.45C337.5 168.003 341.414 167.922 345.31 168.21C347.355 168.335 349.388 168.615 351.39 169.05C351.89 169.16 352.39 169.31 352.91 169.44C353.443 169.61 353.932 169.897 354.34 170.28C355.135 171.035 355.741 171.967 356.11 173C356.507 174.034 356.647 175.149 356.52 176.25C356.428 176.823 356.214 177.369 355.89 177.85C355.8 177.95 355.81 178.22 355.8 178.48V179.28C355.87 181.43 355.97 183.62 355.91 185.82C355.926 188.943 355.415 192.047 354.4 195C353.878 196.48 352.983 197.799 351.8 198.83C351.188 199.309 350.515 199.705 349.8 200.01C349.14 200.36 348.44 200.63 347.8 200.95C345.06 202.12 342.31 203.08 339.6 203.95C336.89 204.82 334.23 205.66 331.6 206.43C321.14 209.43 311.6 211.86 303.66 213.85C301.763 214.351 299.84 214.749 297.9 215.04C296.161 215.282 294.405 215.376 292.65 215.32C289.831 215.26 287.05 214.655 284.46 213.54C282.836 212.823 281.321 211.881 279.96 210.74C279.481 210.353 279.033 209.928 278.62 209.47C278.62 209.47 279.08 209.91 280.03 210.66C281.408 211.759 282.929 212.667 284.55 213.36C287.124 214.422 289.876 214.989 292.66 215.03C294.396 215.072 296.132 214.965 297.85 214.71C299.777 214.406 301.687 213.999 303.57 213.49C311.57 211.49 321.03 209.03 331.46 205.97C334.07 205.2 336.73 204.38 339.46 203.48C342.19 202.58 344.9 201.63 347.61 200.48C348.27 200.17 348.96 199.9 349.61 199.55C350.278 199.256 350.906 198.88 351.48 198.43C352.597 197.46 353.441 196.216 353.93 194.82C354.915 191.905 355.405 188.846 355.38 185.77C355.44 183.58 355.38 181.41 355.27 179.25V178.43C355.27 178.29 355.27 178.15 355.27 178C355.262 177.92 355.262 177.84 355.27 177.76C355.292 177.698 355.319 177.638 355.35 177.58L355.4 177.5C355.681 177.09 355.866 176.622 355.94 176.13C356.057 175.113 355.923 174.083 355.55 173.13C355.214 172.175 354.659 171.312 353.93 170.61C353.576 170.278 353.152 170.029 352.69 169.88C352.19 169.75 351.69 169.61 351.2 169.49C349.224 169.062 347.218 168.784 345.2 168.66C341.345 168.365 337.471 168.439 333.63 168.88C333.4 168.88 333.17 168.94 332.95 169L332.63 169.07C332.56 169.097 332.494 169.131 332.43 169.17C332.129 169.498 331.858 169.853 331.62 170.23C331.144 170.966 330.856 171.807 330.78 172.68C330.693 174.399 331.163 176.1 332.12 177.53L332.32 177.84H331.97L300.63 181.84C297.791 181.696 294.946 181.776 292.12 182.08C291.12 182.18 290.39 182.29 289.89 182.36C289.39 182.43 289.14 182.55 289.14 182.55Z" fill="#263238"/>
<path d="M204.313 215.118L191.552 192.19L432.923 57.8449C435.703 56.2971 438.985 55.9173 442.046 56.7892C445.107 57.6611 447.696 59.7132 449.244 62.4941L450.338 64.4601C451.886 67.241 452.266 70.5228 451.394 73.5836C450.522 76.6445 448.47 79.2336 445.689 80.7814L204.318 215.127L204.313 215.118Z" fill="#006FFD"/>
<path d="M406.714 93.8623L377.159 40.7631C377.016 40.5061 376.925 40.2234 376.891 39.9312C376.857 39.639 376.881 39.343 376.962 39.0601C377.043 38.7772 377.178 38.5129 377.361 38.2824C377.544 38.0518 377.77 37.8596 378.027 37.7165L391.588 30.1686C391.845 30.0255 392.128 29.9345 392.42 29.9007C392.712 29.8669 393.008 29.8909 393.291 29.9715C393.574 30.0521 393.838 30.1876 394.069 30.3704C394.299 30.5531 394.492 30.7794 394.635 31.0364L424.189 84.1356L406.714 93.8623Z" fill="#006FFD"/>
<path d="M348.573 69.1365L370.113 107.836C370.983 109.399 372.956 109.961 374.52 109.091L386.333 102.516C387.896 101.646 388.458 99.6727 387.588 98.1091L366.048 59.4098C365.178 57.8462 363.205 57.2842 361.642 58.1545L349.828 64.7297C348.265 65.6 347.703 67.5729 348.573 69.1365Z" fill="#006FFD"/>
<path d="M367.591 66.8765L380.926 90.8353L408.066 75.7297L394.73 51.7709L367.591 66.8765Z" fill="#006FFD"/>
<path d="M429.39 59.86C429.46 59.98 382.09 86.48 323.61 119.04C265.13 151.6 217.61 177.9 217.61 177.77C217.61 177.64 264.9 151.15 323.4 118.58C381.9 86.01 429.32 59.73 429.39 59.86Z" fill="#263238"/>
<path d="M106.56 259.41C124.36 291.41 161.89 304.41 190.39 288.56C218.89 272.71 227.59 233.91 209.79 201.95C191.99 169.99 154.47 156.95 125.96 172.8C97.45 188.65 88.77 227.45 106.56 259.41ZM194.35 210.55C206.82 232.95 200.73 260.12 180.75 271.23C160.77 282.34 134.48 273.23 122.01 250.81C109.54 228.39 115.63 201.24 135.6 190.12C155.57 179 181.88 188.15 194.35 210.55Z" fill="#006FFD"/>
<path d="M232.182 169.299L245.352 192.961C247.103 196.107 251.074 197.238 254.22 195.487L255.286 194.893C258.432 193.142 259.563 189.172 257.812 186.026L244.642 162.364C242.891 159.217 238.921 158.086 235.774 159.838L234.708 160.431C231.562 162.182 230.431 166.153 232.182 169.299Z" fill="#006FFD"/>
<path d="M257.475 155.22L270.645 178.882C272.396 182.028 276.367 183.159 279.513 181.408L280.579 180.815C283.725 179.063 284.856 175.093 283.105 171.947L269.935 148.285C268.184 145.139 264.214 144.008 261.067 145.759L260.001 146.352C256.855 148.103 255.724 152.074 257.475 155.22Z" fill="#006FFD"/>
<path d="M244.36 162C244.49 161.93 247.54 167.3 251.19 174C254.84 180.7 257.69 186.16 257.56 186.23C257.43 186.3 254.38 180.94 250.73 174.23C247.08 167.52 244.23 162 244.36 162Z" fill="#263238"/>
<path d="M232.75 170.25C232.88 170.18 235.86 175.31 239.42 181.69C242.98 188.07 245.75 193.32 245.63 193.39C245.51 193.46 242.52 188.33 239 182C235.48 175.67 232.63 170.32 232.75 170.25Z" fill="#263238"/>
<path d="M269.81 148.07C269.94 148 273.05 153.34 276.76 160C280.47 166.66 283.37 172.13 283.24 172.2C283.11 172.27 280.01 166.92 276.3 160.26C272.59 153.6 269.69 148.14 269.81 148.07Z" fill="#263238"/>
<path d="M257.6 155.44C257.72 155.37 260.77 160.68 264.39 167.3C268.01 173.92 270.86 179.3 270.73 179.41C270.6 179.52 267.57 174.17 263.94 167.55C260.31 160.93 257.47 155.51 257.6 155.44Z" fill="#263238"/>
<path d="M330.13 119.37C331.294 119.507 332.468 119.206 333.423 118.525C334.377 117.844 335.044 116.833 335.294 115.687C335.543 114.542 335.358 113.344 334.773 112.328C334.188 111.312 333.246 110.55 332.13 110.19C332.851 109.451 333.322 108.505 333.475 107.484C333.629 106.463 333.457 105.42 332.985 104.502C332.513 103.584 331.764 102.838 330.844 102.369C329.924 101.9 328.88 101.733 327.86 101.89C327.818 100.875 327.514 99.8874 326.978 99.0243C326.441 98.1612 325.691 97.4516 324.799 96.9644C323.907 96.4772 322.904 96.2291 321.888 96.2441C320.872 96.2591 319.877 96.5367 319 97.05C317.856 96.115 316.433 95.5893 314.956 95.5567C313.479 95.5241 312.034 95.9864 310.85 96.87C309.855 96.6801 308.826 96.8159 307.915 97.2571C307.003 97.6983 306.258 98.4215 305.79 99.3194C305.322 100.217 305.156 101.242 305.316 102.242C305.477 103.242 305.955 104.163 306.68 104.87" fill="#263238"/>
<path d="M309.84 101.53H310.84C315.882 101.534 320.738 103.437 324.44 106.86C328.143 110.282 330.42 114.974 330.82 120C331.57 129.69 332.27 140.4 332.19 145.6C332 156.4 321.26 158 321.26 158L322.13 170.94L296 170.09L293.83 123.19C292.91 112 298.64 102.15 309.84 101.53Z" fill="#FFBF9D"/>
<path d="M321.35 158C316.351 157.986 311.461 156.539 307.26 153.83C307.26 153.83 310.72 161.98 321.46 161.04L321.35 158Z" fill="#FF9A6C"/>
<path d="M324.91 130.15C324.913 130.551 324.758 130.936 324.48 131.224C324.201 131.512 323.821 131.68 323.42 131.69C323.225 131.704 323.029 131.678 322.843 131.616C322.658 131.553 322.487 131.454 322.34 131.325C322.193 131.195 322.073 131.038 321.987 130.862C321.902 130.687 321.851 130.495 321.84 130.3C321.84 129.899 321.995 129.514 322.273 129.225C322.55 128.936 322.929 128.766 323.33 128.75C323.526 128.736 323.723 128.762 323.909 128.825C324.095 128.889 324.266 128.988 324.414 129.119C324.561 129.249 324.68 129.407 324.766 129.584C324.851 129.761 324.9 129.954 324.91 130.15Z" fill="#263238"/>
<path d="M328.49 125.29C328.3 125.49 327.13 124.63 325.49 124.63C323.85 124.63 322.62 125.45 322.44 125.25C322.26 125.05 322.55 124.8 323.08 124.41C323.797 123.917 324.65 123.659 325.52 123.67C326.38 123.666 327.218 123.94 327.91 124.45C328.41 124.84 328.58 125.21 328.49 125.29Z" fill="#263238"/>
<path d="M310 129.43C310.008 129.837 309.855 130.23 309.574 130.524C309.293 130.819 308.907 130.99 308.5 131C308.305 131.014 308.109 130.988 307.923 130.926C307.738 130.863 307.567 130.764 307.42 130.635C307.273 130.505 307.153 130.348 307.067 130.172C306.982 129.997 306.932 129.805 306.92 129.61C306.917 129.208 307.071 128.822 307.35 128.532C307.628 128.242 308.009 128.073 308.41 128.06C308.605 128.045 308.8 128.069 308.985 128.129C309.171 128.19 309.342 128.287 309.49 128.414C309.638 128.542 309.759 128.697 309.846 128.871C309.934 129.046 309.986 129.235 310 129.43Z" fill="#263238"/>
<path d="M312.23 125.55C312.04 125.75 310.87 124.89 309.23 124.89C307.59 124.89 306.36 125.71 306.18 125.51C306 125.31 306.29 125.06 306.82 124.67C307.537 124.177 308.39 123.919 309.26 123.93C310.12 123.926 310.958 124.2 311.65 124.71C312.15 125.1 312.32 125.46 312.23 125.55Z" fill="#263238"/>
<path d="M318.19 137.84C319.063 137.566 319.967 137.404 320.88 137.36C321.3 137.36 321.7 137.24 321.78 136.95C321.815 136.515 321.718 136.079 321.5 135.7L320.26 132.48C318.54 127.89 317.26 124.12 317.48 124.06C317.7 124 319.21 127.65 320.93 132.23C321.34 133.36 321.74 134.44 322.12 135.47C322.379 135.983 322.454 136.569 322.33 137.13C322.267 137.278 322.172 137.41 322.05 137.516C321.929 137.621 321.785 137.698 321.63 137.74C321.4 137.808 321.16 137.842 320.92 137.84C320.014 137.953 319.097 137.953 318.19 137.84Z" fill="#263238"/>
<path d="M313.68 119.19C313.46 119.61 312.05 119.19 310.3 119.09C308.55 118.99 307.09 119.32 306.93 118.88C306.86 118.67 307.17 118.3 307.8 117.96C308.613 117.559 309.515 117.373 310.42 117.42C311.317 117.452 312.19 117.721 312.95 118.2C313.52 118.59 313.78 119 313.68 119.19Z" fill="#263238"/>
<path d="M328.59 118.48C328.24 118.85 326.87 118.48 325.23 118.48C323.59 118.48 322.23 118.73 321.88 118.33C321.74 118.14 321.96 117.76 322.57 117.41C323.41 116.97 324.352 116.759 325.3 116.8C326.243 116.813 327.165 117.079 327.97 117.57C328.55 117.91 328.74 118.29 328.59 118.48Z" fill="#263238"/>
<path d="M329.8 115.1C329.8 115.1 326.98 108.35 323.73 106.77C319.8 104.85 318.1 109.16 314.35 108.1C310.6 107.04 306.85 105.21 303.01 108.1C298.81 111.26 300.77 113.49 300.49 118.27C299.39 137.63 295.83 143.09 294.86 133.97C294.75 132.97 291.98 132.17 291.58 127.97C291.06 122.5 290.87 115.85 292.11 111.97C293.11 108.7 295.02 106.44 298.37 103.97C303.67 100.05 310.93 99.97 315.86 100.5C320.79 101.03 330.27 106.66 329.8 115.1Z" fill="#263238"/>
<path d="M295.54 133.67C295.529 133.275 295.438 132.886 295.272 132.527C295.106 132.169 294.87 131.847 294.576 131.583C294.282 131.318 293.938 131.116 293.564 130.988C293.19 130.86 292.794 130.81 292.4 130.84C290.4 131.03 288.15 132.16 288.27 136.31C288.48 143.67 295.83 141.94 295.84 141.72C295.85 141.5 295.66 136.75 295.54 133.67Z" fill="#FFBF9D"/>
<path d="M294.15 139C294.15 139 294.03 139.1 293.81 139.2C293.511 139.337 293.171 139.355 292.86 139.25C292.374 138.963 291.974 138.551 291.702 138.056C291.429 137.562 291.294 137.004 291.31 136.44C291.272 135.812 291.374 135.183 291.61 134.6C291.674 134.369 291.792 134.158 291.956 133.984C292.12 133.809 292.324 133.678 292.55 133.6C292.697 133.555 292.854 133.564 292.995 133.624C293.136 133.685 293.251 133.793 293.32 133.93C293.42 134.13 293.38 134.28 293.42 134.29C293.46 134.3 293.57 134.16 293.5 133.86C293.46 133.678 293.353 133.517 293.2 133.41C293.099 133.336 292.984 133.282 292.862 133.253C292.74 133.224 292.614 133.22 292.49 133.24C292.189 133.308 291.91 133.452 291.681 133.659C291.451 133.865 291.279 134.127 291.18 134.42C290.883 135.064 290.749 135.772 290.79 136.48C290.88 137.96 291.68 139.33 292.79 139.61C292.988 139.662 293.196 139.669 293.397 139.629C293.598 139.589 293.787 139.504 293.95 139.38C294.15 139.18 294.18 139 294.15 139Z" fill="#FF9A6C"/>
<path d="M295.73 119.41C296.63 120.144 297.699 120.642 298.84 120.86C299.413 120.95 299.999 120.829 300.49 120.52C300.981 120.211 301.343 119.735 301.51 119.18C301.6 118.67 301.51 118.07 301.81 117.68C302.11 117.29 302.96 117.36 303.57 117.43C305.71 117.66 308.22 115.3 308.77 113.22C309.048 113.619 309.467 113.897 309.943 113.997C310.419 114.097 310.915 114.013 311.33 113.76C312.01 113.344 312.613 112.813 313.11 112.19C313.4 111.793 313.781 111.472 314.222 111.255C314.662 111.037 315.149 110.929 315.64 110.94C316.158 111.119 316.695 111.236 317.24 111.29C318.24 111.21 318.68 110.08 318.83 109.12C318.98 108.16 319.1 107.05 319.92 106.53C320.762 106.2 321.692 106.175 322.55 106.46C323.44 106.6 324.55 106.39 324.82 105.52C324.857 105.288 324.846 105.05 324.79 104.822C324.733 104.593 324.631 104.378 324.49 104.19C323.895 103.298 323.016 102.633 321.996 102.303C320.976 101.972 319.875 101.996 318.87 102.37C318.516 101.139 317.804 100.042 316.824 99.2173C315.844 98.3928 314.641 97.8786 313.368 97.7402C312.095 97.6019 310.81 97.8456 309.675 98.4404C308.541 99.0352 307.61 99.9541 307 101.08C306.221 100.367 305.281 99.8523 304.261 99.5807C303.24 99.3091 302.169 99.2883 301.139 99.5202C300.108 99.752 299.149 100.229 298.343 100.912C297.537 101.595 296.908 102.462 296.51 103.44C295.61 103.2 294.659 103.23 293.775 103.526C292.892 103.822 292.115 104.372 291.542 105.106C290.968 105.841 290.624 106.727 290.55 107.656C290.477 108.585 290.679 109.515 291.13 110.33C290.445 110.668 289.857 111.175 289.421 111.803C288.986 112.431 288.717 113.16 288.64 113.92C288.64 115.44 290.09 116.92 291.56 116.56C291.255 117.159 291.191 117.852 291.381 118.497C291.571 119.141 292.001 119.689 292.582 120.027C293.163 120.364 293.851 120.467 294.505 120.313C295.16 120.16 295.73 119.761 296.1 119.2" fill="#263238"/>
<path d="M319.41 104.53C319.41 104.53 319.41 104.53 319.41 104.67C319.41 104.81 319.41 104.89 319.36 105.06C319.257 105.559 319.074 106.038 318.82 106.48C318.414 107.172 317.857 107.763 317.19 108.21C316.309 108.811 315.256 109.109 314.19 109.06L314.31 108.9C314.526 109.56 314.472 110.279 314.16 110.9C313.83 111.558 313.405 112.164 312.9 112.7C312.655 113.012 312.377 113.297 312.07 113.55C311.526 113.908 310.873 114.061 310.226 113.982C309.58 113.904 308.982 113.598 308.54 113.12L308.81 113.04C308.707 113.804 308.444 114.538 308.039 115.194C307.635 115.851 307.097 116.415 306.46 116.85C305.761 117.37 304.911 117.647 304.04 117.64C303.223 117.595 302.419 117.416 301.66 117.11L301.86 117.02C301.475 117.911 300.873 118.691 300.11 119.29C299.762 119.588 299.351 119.805 298.908 119.925C298.465 120.044 298.001 120.063 297.55 119.98C296.777 119.812 296.069 119.421 295.515 118.856C294.961 118.291 294.584 117.576 294.43 116.8L294.6 116.88C293.822 117.283 292.93 117.41 292.07 117.24C291.43 117.118 290.827 116.847 290.31 116.45C289.989 116.198 289.711 115.894 289.49 115.55C289.409 115.431 289.348 115.299 289.31 115.16C289.59 115.62 289.952 116.023 290.38 116.35C290.89 116.719 291.479 116.962 292.1 117.06C292.917 117.215 293.762 117.08 294.49 116.68L294.63 116.6V116.76C294.781 117.483 295.14 118.146 295.662 118.668C296.184 119.19 296.847 119.549 297.57 119.7C297.982 119.772 298.405 119.751 298.809 119.639C299.212 119.526 299.585 119.325 299.9 119.05C300.617 118.48 301.18 117.742 301.54 116.9L301.6 116.77H301.74C302.464 117.061 303.231 117.23 304.01 117.27C304.816 117.276 305.603 117.02 306.25 116.54C306.849 116.129 307.356 115.597 307.738 114.979C308.121 114.361 308.37 113.67 308.47 112.95V112.6L308.7 112.87C308.96 113.157 309.287 113.377 309.651 113.509C310.015 113.642 310.406 113.683 310.79 113.63C311.148 113.582 311.491 113.452 311.79 113.25C312.079 113.017 312.341 112.752 312.57 112.46C313.065 111.95 313.482 111.37 313.81 110.74C313.957 110.459 314.048 110.152 314.075 109.836C314.102 109.52 314.067 109.202 313.97 108.9L313.91 108.72H314.1C315.121 108.783 316.136 108.513 316.99 107.95C317.646 107.527 318.2 106.964 318.61 106.3C318.979 105.762 319.25 105.163 319.41 104.53Z" fill="#455A64"/>
<path d="M318.17 143.33C318.11 143.06 316.32 143.5 314.66 142.28C313 141.06 312.73 139.1 312.48 139.15C312.23 139.2 312.23 139.67 312.41 140.48C312.656 141.537 313.269 142.472 314.14 143.12C314.972 143.74 316.011 144.012 317.04 143.88C317.81 143.76 318.21 143.45 318.17 143.33Z" fill="#263238"/>
<path d="M373.63 423.12L380.73 447.31C380.73 447.31 407.73 448.21 409.46 452.56L363 468L350.38 430.75L373.63 423.12Z" fill="#455A64"/>
<path d="M365.71 450.08C365.309 450.365 365.027 450.788 364.919 451.267C364.81 451.747 364.881 452.25 365.12 452.68C365.389 453.091 365.805 453.384 366.283 453.497C366.762 453.611 367.265 453.537 367.69 453.29C368.115 452.987 368.413 452.537 368.525 452.027C368.638 451.517 368.558 450.984 368.3 450.53C367.974 450.129 367.506 449.87 366.993 449.807C366.481 449.743 365.964 449.881 365.55 450.19" fill="#E0E0E0"/>
<path d="M406.84 450.81C406.84 450.81 409.21 451.02 409.46 452.56L363 468L361.88 464.19L406.8 450.79" fill="#263238"/>
<path d="M381.4 446.82C381.47 447.05 380.4 447.53 379.5 448.63C378.6 449.73 378.35 450.88 378.11 450.86C377.87 450.84 377.78 449.42 378.86 448.11C379.94 446.8 381.38 446.6 381.4 446.82Z" fill="white"/>
<path d="M386.94 447.21C387.07 447.42 386.22 448.13 385.76 449.34C385.3 450.55 385.43 451.65 385.2 451.71C384.97 451.77 384.4 450.54 384.99 449.04C385.58 447.54 386.87 447 386.94 447.21Z" fill="white"/>
<path d="M391.65 452.12C391.46 452.24 390.77 451.21 390.94 449.78C391.11 448.35 392 447.49 392.16 447.65C392.32 447.81 391.88 448.65 391.76 449.87C391.64 451.09 391.87 452 391.65 452.12Z" fill="white"/>
<path d="M379.17 441.49C379.17 441.73 378 441.76 376.75 442.27C375.5 442.78 374.63 443.52 374.45 443.37C374.27 443.22 374.96 442.09 376.45 441.5C377.94 440.91 379.23 441.27 379.17 441.49Z" fill="white"/>
<path d="M265.29 423.33L255.18 446.43C255.18 446.43 275.27 464.43 273.82 468.91L228.32 450.91L242.59 414.27L265.29 423.33Z" fill="#455A64"/>
<path d="M241.89 438.9C241.401 438.861 240.914 439.004 240.523 439.301C240.132 439.598 239.864 440.028 239.77 440.51C239.714 440.998 239.846 441.489 240.14 441.883C240.434 442.277 240.866 442.544 241.35 442.63C241.869 442.669 242.385 442.515 242.798 442.197C243.211 441.88 243.493 441.422 243.59 440.91C243.59 439.91 242.68 438.77 241.7 438.91" fill="#E0E0E0"/>
<path d="M272.93 465.89C272.93 465.89 274.61 467.58 273.82 468.89L228.32 450.89L229.91 447.26L272.91 465.86" fill="#263238"/>
<path d="M256 446.49C255.91 446.71 254.76 446.37 253.38 446.65C252 446.93 251.05 447.65 250.88 447.47C250.71 447.29 251.55 446.15 253.22 445.84C254.89 445.53 256.14 446.3 256 446.49Z" fill="white"/>
<path d="M260 450.35C260 450.58 258.86 450.58 257.73 451.22C256.6 451.86 256 452.77 255.73 452.68C255.46 452.59 255.87 451.27 257.28 450.5C258.69 449.73 260.08 450.14 260 450.35Z" fill="white"/>
<path d="M260.46 457.13C260.24 457.13 260.37 455.87 261.46 454.88C262.55 453.89 263.74 453.81 263.76 454.03C263.78 454.25 262.88 454.65 262.03 455.48C261.18 456.31 260.69 457.2 260.46 457.13Z" fill="white"/>
<path d="M257.73 441C257.56 441.16 256.66 440.46 255.37 440C254.08 439.54 252.95 439.6 252.91 439.37C252.87 439.14 254.12 438.71 255.63 439.21C257.14 439.71 257.91 440.84 257.73 441Z" fill="white"/>
<path d="M282.32 296.43L266.38 361.09C266.38 361.09 237.63 409.49 232.76 433.71L259.06 444.05C259.06 444.05 278.19 397.4 283.8 388.84C286.324 385.004 289.225 381.429 292.46 378.17C294.563 376.084 296.072 373.474 296.83 370.61L308.9 324.48L282.32 296.43Z" fill="#263238"/>
<path d="M275.53 286.09C275.53 286.09 277.75 303.41 294.42 311.09L329.54 368.29C329.54 368.29 332.29 386.89 337.54 402.56C342.79 418.23 353.4 448.43 353.4 448.43L382.29 437.63L363.88 374.69L360.88 352.86L332.22 279.86L307.6 265.1L275.53 286.09Z" fill="#263238"/>
<path d="M275.53 286.09L276.06 285.73L277.65 284.67L283.89 280.55L307.55 265L307.63 264.95L307.71 265L332.35 279.73V279.79L361.07 352.72V352.77C362.02 359.67 363.07 367.06 364.07 374.6C369.07 391.6 374.37 409.79 379.85 428.53C380.737 431.55 381.617 434.55 382.49 437.53L382.56 437.76L382.33 437.84L353.44 448.64L353.19 448.73L353.11 448.48C348.11 433.97 343.27 420 338.7 406.75C337.55 403.44 336.42 400.16 335.48 396.88C334.54 393.6 333.69 390.34 332.92 387.12C331.4 380.68 330.18 374.39 329.22 368.29V368.37L294.3 311.15L294.36 311.2C290.136 309.225 286.385 306.368 283.36 302.82C281.142 300.216 279.323 297.297 277.96 294.16C277.117 292.223 276.448 290.215 275.96 288.16C275.79 287.48 275.69 286.95 275.63 286.59C275.57 286.23 275.56 286.05 275.56 286.05C275.56 286.05 275.56 286.23 275.67 286.58C275.78 286.93 275.84 287.46 276.03 288.15C276.546 290.179 277.235 292.159 278.09 294.07C279.47 297.175 281.296 300.063 283.51 302.64C286.546 306.151 290.297 308.973 294.51 310.92L329.7 368.08V368.13C330.7 374.21 331.9 380.49 333.42 386.92C334.19 390.13 335.03 393.38 335.98 396.65C336.93 399.92 338.05 403.18 339.2 406.49C343.79 419.74 348.62 433.71 353.64 448.21L353.31 448.06L382.2 437.26L382.04 437.57C381.173 434.59 380.293 431.59 379.4 428.57L363.64 374.63C362.64 367.09 361.58 359.7 360.64 352.8V352.86L332.03 279.86L332.11 279.95L307.51 265.16H307.66L284 280.64L277.7 284.7L276.08 285.75L275.53 286.09Z" fill="#455A64"/>
<path d="M291 162.52C291 162.52 282.58 169 278.49 176.24C273.59 184.91 273.06 197.76 272.91 217.72C272.76 236.18 275.52 241.31 274.46 248.27C272.37 261.86 270.82 307.47 270.82 307.47C270.82 307.47 297.82 297.1 303.06 292.47L308.33 287.89L342.12 299.06L335.3 257.54L330.62 205.79L324.62 178.34L323.62 167.57L294.6 155.91L291 162.52Z" fill="#455A64"/>
<path d="M322.53 167C322.88 167.07 321.7 169.44 319.62 172.92L319.53 173.06L319.37 173C316.44 171.86 312.56 170.43 308.32 168.88C303.54 167.14 299.22 165.52 296.13 164.26C294.58 163.63 293.34 163.1 292.49 162.71C292.039 162.535 291.604 162.321 291.19 162.07C291.665 162.176 292.127 162.33 292.57 162.53L296.26 163.92L308.5 168.39C312.74 169.94 316.61 171.39 319.5 172.63L319.26 172.71C321.44 169.3 322.73 167.05 322.53 167Z" fill="#263238"/>
<path d="M357.45 145.44C357.45 145.44 355.31 142.11 353.29 139.04C351.27 135.97 348.21 134.46 347.72 132.86C347.23 131.26 344.54 124.13 344.11 122.36C343.736 120.646 343.562 118.894 343.59 117.14C343.59 117.14 345.8 116.2 346.86 119.36C347.5 121.26 349.54 127.71 349.98 128.03C350.42 128.35 350.98 127.88 350.98 127.88C350.072 125.465 349.287 123.005 348.63 120.51C348.53 119.34 348.94 111.58 348.94 111.58C349.488 111.469 350.058 111.559 350.546 111.832C351.034 112.106 351.408 112.545 351.6 113.07C352.65 115.07 352.69 120.07 352.69 120.07L354.28 125.65L353.72 120.13L354.52 109.98C355.297 110.091 356.021 110.438 356.594 110.975C357.166 111.512 357.559 112.212 357.72 112.98C358.39 115.72 357.5 119.54 357.95 120.35C358.4 121.16 358.89 126.06 358.89 126.06C358.89 126.06 359.44 114.16 360.71 113.82C361.98 113.48 363.02 114.74 362.84 117.14C362.66 119.54 362.61 124.62 363.27 126.86C363.93 129.1 370.7 137.86 370.15 141.7C369.813 144.02 369.603 146.357 369.52 148.7H357.92L357.45 145.44Z" fill="#FFBF9D"/>
<path d="M316.76 175.41C317.41 175.66 345.12 182.52 345.12 182.52C345.12 182.52 351.31 172.52 352.22 169.62C353.13 166.72 358 147.4 358 147.4L369.71 146.3C369.71 146.3 366.71 196.19 362.47 198.88C358.23 201.57 351.47 202.93 351.03 202.78C350.59 202.63 321.08 204.68 305.53 192.43C289.98 180.18 316.76 175.41 316.76 175.41Z" fill="#FFBF9D"/>
<g opacity="0.3">
<path d="M296.9 201.82C299.874 205.186 303.842 207.519 308.23 208.48C315.58 210.1 331.23 212.97 331.23 212.97L330.47 205.29L296.47 201.65" fill="black"/>
</g>
<path d="M284.56 191.26C287.08 196.58 292.68 202.26 304.99 203.55C329.36 206.07 347.81 207.41 355.78 206.21C363.75 205.01 366.92 188.14 367.78 187.62C370.26 186.06 370.1 180.7 367.96 179.1C361.88 174.55 349.69 171.1 348.87 171.47C344.02 173.88 345.6 179.52 345.6 179.52L314.7 172.7C311.141 171.22 307.428 170.14 303.63 169.48" fill="#455A64"/>
<path d="M303.63 169.48C303.63 169.48 303.89 169.48 304.39 169.58C304.89 169.68 305.64 169.8 306.6 170.01C309.387 170.642 312.116 171.505 314.76 172.59L345.64 179.31L345.38 179.59C344.923 177.818 345.063 175.944 345.78 174.26C346.175 173.398 346.772 172.643 347.52 172.06C347.899 171.764 348.304 171.503 348.73 171.28C348.876 171.236 349.028 171.213 349.18 171.21H349.55C349.8 171.21 350.02 171.29 350.26 171.33C354.06 172.229 357.766 173.484 361.33 175.08C363.208 175.898 365.023 176.854 366.76 177.94C367.19 178.22 367.62 178.53 368.05 178.83C368.495 179.168 368.857 179.602 369.11 180.1C369.598 181.082 369.851 182.164 369.85 183.26C369.876 184.37 369.628 185.468 369.13 186.46C368.854 186.972 368.464 187.413 367.99 187.75C367.87 187.81 367.79 188.07 367.69 188.31L367.43 189.06C366.77 191.06 366.11 193.2 365.31 195.26C364.262 198.214 362.728 200.972 360.77 203.42C360.06 204.35 359.155 205.114 358.119 205.656C357.082 206.199 355.939 206.507 354.77 206.56C354.02 206.67 353.27 206.69 352.53 206.75C349.53 206.93 346.65 206.89 343.8 206.81C340.95 206.73 338.16 206.58 335.45 206.41C324.58 205.71 314.83 204.72 306.65 203.87C304.696 203.699 302.753 203.418 300.83 203.03C299.124 202.665 297.451 202.157 295.83 201.51C293.204 200.49 290.797 198.976 288.74 197.05C287.456 195.821 286.352 194.417 285.46 192.88C285.141 192.353 284.863 191.801 284.63 191.23C284.63 191.23 284.91 191.8 285.55 192.83C286.474 194.329 287.594 195.698 288.88 196.9C290.935 198.784 293.331 200.257 295.94 201.24C297.564 201.866 299.236 202.358 300.94 202.71C302.858 203.078 304.794 203.341 306.74 203.5C314.92 204.31 324.67 205.26 335.52 205.94C338.24 206.1 341.02 206.24 343.86 206.31C346.7 206.38 349.61 206.42 352.55 206.25C353.28 206.18 354.03 206.16 354.76 206.05C355.489 206.012 356.209 205.874 356.9 205.64C358.282 205.107 359.501 204.225 360.44 203.08C362.356 200.679 363.856 197.976 364.88 195.08C365.68 193.08 366.33 190.97 366.99 188.91L367.27 188.13C367.27 188.01 367.37 187.88 367.43 187.74C367.466 187.663 367.51 187.589 367.56 187.52C367.598 187.472 367.642 187.428 367.69 187.39L367.76 187.33C368.175 187.043 368.517 186.663 368.76 186.22C369.227 185.291 369.454 184.259 369.42 183.22C369.423 182.208 369.194 181.209 368.75 180.3C368.532 179.871 368.221 179.495 367.84 179.2C367.41 178.91 367 178.6 366.57 178.33C364.858 177.252 363.066 176.306 361.21 175.5C357.686 173.911 354.02 172.659 350.26 171.76C350.03 171.76 349.8 171.66 349.58 171.64H349.25H349.03C348.636 171.85 348.261 172.095 347.91 172.37C347.213 172.895 346.654 173.582 346.28 174.37C345.617 175.952 345.481 177.705 345.89 179.37L345.98 179.72L345.63 179.64L314.8 172.74C312.18 171.638 309.479 170.742 306.72 170.06C305.72 169.83 305.03 169.67 304.53 169.57C304.03 169.47 303.63 169.48 303.63 169.48Z" fill="#263238"/>
<path d="M355.78 189.17C355.069 188.994 354.393 188.7 353.78 188.3C352.247 187.445 350.834 186.389 349.58 185.16C348.319 183.936 347.218 182.559 346.3 181.06C345.883 180.446 345.562 179.771 345.35 179.06C346.721 181.08 348.256 182.983 349.94 184.75C351.751 186.395 353.705 187.874 355.78 189.17Z" fill="#263238"/>
<path d="M138.22 271.53C138.22 271.53 144.42 271.86 148.22 274.27C152.02 276.68 158.22 280.4 160.77 285.04C161.94 287.17 158.61 287.62 156.97 286.38C155.33 285.14 152.8 282.82 151.55 282.53L150.3 282.25C151.44 284.83 152.711 287.35 154.11 289.8C155.4 291.8 156.52 295.12 152.65 295.28C152.65 295.28 150.03 298.68 147.39 296.16C147.39 296.16 145.33 299.24 142.01 294.97C142.01 294.97 140.08 297.41 139.27 296.48C138.46 295.55 135.82 294.06 135.05 291C133.901 287.436 132.566 283.934 131.05 280.51L138.22 271.53Z" fill="#FFBF9D"/>
<path d="M85.46 190C82.2819 191.023 79.539 193.083 77.67 195.85C75.29 199.51 74.56 205.85 75.24 210.57C76.68 220.52 81.24 237.31 83.81 248.09C84.69 251.81 86.5 258.47 91.81 262L129.7 284.72L139.83 269.72L105.29 241.57L98.46 202.99L85.46 190Z" fill="#455A64"/>
<path d="M78.91 227.92C78.962 228.046 79.0021 228.177 79.03 228.31L79.35 229.48C79.62 230.54 80 232.06 80.5 234.01C81.5 238.01 82.92 243.69 84.69 250.76C85.7177 254.611 87.8943 258.057 90.93 260.64C92.6642 262.028 94.5181 263.26 96.47 264.32L102.56 268L129.85 284.48L129.5 284.56L133.15 279.15L139.63 269.52L139.68 269.87L105.45 241.68H105.39V241.61C103.13 232.1 101.49 224.31 100.45 218.89C99.94 216.18 99.58 214.07 99.35 212.63C99.25 211.93 99.17 211.38 99.11 210.99C99.05 210.6 99.04 210.43 99.04 210.43C99.0943 210.611 99.1377 210.794 99.17 210.98C99.24 211.37 99.34 211.91 99.46 212.61C99.73 214.04 100.12 216.15 100.68 218.85C101.77 224.25 103.47 232.02 105.78 241.52L105.71 241.41L140 269.47L140.18 269.62L140.05 269.81L133.57 279.44L129.92 284.85L129.79 285.05L129.57 284.93L102.32 268.4L96.24 264.71C94.2752 263.639 92.408 262.397 90.66 261C87.5718 258.355 85.3694 254.826 84.35 250.89C82.64 243.8 81.27 238.07 80.35 234.1C79.9 232.1 79.54 230.61 79.29 229.55L79 228.32C78.9607 228.189 78.9306 228.055 78.91 227.92Z" fill="#263238"/>
<path d="M79.53 195.33C79.7653 195.176 80.0259 195.064 80.3 195C81.0259 194.776 81.7681 194.609 82.52 194.5C85.0282 194.113 87.5948 194.461 89.91 195.5C92.1477 196.667 94.0484 198.388 95.43 200.5C95.849 201.138 96.185 201.827 96.43 202.55C96.5374 202.807 96.5983 203.081 96.61 203.36C96.1779 202.442 95.6799 201.556 95.12 200.71C93.6966 198.739 91.8342 197.127 89.68 196C87.4458 195.01 84.9889 194.63 82.56 194.9C80.69 195.05 79.56 195.42 79.53 195.33Z" fill="#263238"/>
</svg>
